<?xml version="1.0" standalone="no"?>
<!DOCTYPE svg PUBLIC "-//W3C//DTD SVG 20010904//EN"
 "http://www.w3.org/TR/2001/REC-SVG-20010904/DTD/svg10.dtd">
<svg version="1.0" xmlns="http://www.w3.org/2000/svg"
 width="450.000000pt" height="450.000000pt" viewBox="0 0 450.000000 450.000000"
 preserveAspectRatio="xMidYMid meet">
<metadata>
Created by potrace 1.11, written by Peter Selinger 2001-2013
</metadata>
<g transform="translate(0.000000,450.000000) scale(0.100000,-0.100000)"
fill="#000000" stroke="none">
<path d="M1515 3643 c7 -18 25 -119 25 -138 0 -5 -27 -39 -60 -75 -55 -58 -76
-91 -50 -75 28 18 107 22 165 10 22 -5 43 -9 46 -9 4 -1 25 -21 46 -46 30 -33
40 -39 39 -24 -1 10 -6 26 -11 33 -8 14 -14 41 -20 91 -1 14 2 31 8 38 5 6 6
12 2 12 -3 0 8 12 27 27 29 25 68 63 68 68 0 1 -21 -4 -47 -10 -31 -8 -57 -9
-72 -3 -13 5 -26 6 -28 4 -3 -3 -16 7 -29 21 -13 14 -24 22 -24 18 0 -5 -17
10 -38 33 -41 44 -59 53 -47 25z"/>
<path d="M3564 3356 c1 -58 -20 -146 -33 -146 -4 0 -17 -10 -31 -23 -33 -30
-130 -97 -141 -97 -5 0 -9 -6 -9 -13 0 -10 12 -12 53 -7 28 4 59 6 67 4 8 -1
29 -3 46 -3 37 -1 53 -17 124 -120 30 -44 58 -80 61 -81 3 0 6 14 7 31 1 35
16 124 22 132 2 2 6 18 14 57 3 14 13 30 21 36 8 6 15 15 15 20 0 5 32 26 70
47 39 21 70 40 70 42 0 4 -119 -2 -174 -9 -28 -3 -86 21 -86 36 0 4 -7 14 -16
22 -8 9 -17 24 -19 35 -2 10 -16 37 -32 59 l-29 39 0 -61z"/>
<path d="M2240 3102 c-25 -8 -47 -18 -50 -23 -3 -4 -12 -9 -20 -11 -8 -2 -22
-12 -32 -23 -9 -11 -17 -17 -18 -12 0 4 -9 -2 -19 -12 -10 -10 -41 -32 -67
-47 -27 -16 -57 -37 -66 -46 -10 -10 -22 -18 -27 -18 -5 0 -16 -6 -23 -12 -23
-23 -163 -112 -170 -110 -5 1 -8 -2 -8 -8 0 -5 -16 -17 -35 -26 -19 -9 -35
-20 -35 -24 0 -4 -13 -13 -30 -20 -16 -7 -30 -16 -30 -21 0 -5 -6 -9 -13 -9
-7 0 -28 -13 -47 -30 -19 -16 -40 -29 -46 -30 -7 0 -15 -7 -18 -16 -3 -8 -10
-12 -16 -9 -5 3 -10 2 -10 -3 0 -4 -18 -18 -40 -31 -22 -12 -45 -28 -52 -34
-20 -19 -170 -117 -179 -117 -5 0 -9 -4 -9 -10 0 -5 -6 -10 -14 -10 -8 0 -16
-4 -18 -8 -4 -10 -156 -112 -167 -112 -4 0 -16 -9 -26 -20 -10 -11 -20 -18
-22 -16 -2 2 -23 -15 -47 -38 -24 -22 -42 -43 -40 -45 2 -3 -3 -15 -12 -29
-13 -20 -52 -142 -69 -215 -2 -10 -7 -27 -10 -37 -3 -10 -7 -27 -9 -37 -2 -10
-11 -36 -19 -58 -8 -22 -19 -53 -23 -70 -4 -16 -8 -32 -9 -35 -26 -87 -33
-110 -38 -132 -1 -7 -6 -18 -10 -25 -8 -13 -10 -50 -5 -73 11 -45 28 -58 90
-70 35 -7 71 -13 81 -13 9 -1 17 -4 17 -8 0 -3 10 -6 22 -5 13 1 34 -4 47 -11
14 -6 28 -10 33 -7 4 3 16 1 25 -5 10 -5 32 -12 48 -15 17 -3 59 -12 95 -21
71 -17 95 -22 153 -31 20 -4 37 -9 37 -13 0 -3 17 -7 37 -9 20 -1 42 -7 48
-12 7 -5 15 -7 18 -4 3 3 12 2 19 -2 7 -5 22 -9 33 -10 24 -3 59 -10 139 -30
34 -8 72 -17 86 -20 14 -2 39 -9 55 -14 17 -5 44 -11 62 -13 17 -3 36 -8 42
-11 5 -3 22 -8 38 -10 15 -3 60 -12 98 -21 133 -30 194 -25 250 23 17 15 47
39 66 54 54 43 100 81 140 115 20 18 40 33 43 33 4 0 20 12 35 28 15 15 40 36
55 47 15 11 38 30 52 42 13 12 41 34 61 50 21 15 43 33 49 38 77 68 132 113
153 126 14 9 32 23 39 32 7 8 42 37 78 63 35 26 64 51 64 56 0 4 7 8 15 8 8 0
15 4 15 9 0 5 26 28 58 52 31 23 64 51 73 61 9 10 20 18 24 18 5 0 15 7 24 15
48 47 109 98 134 111 15 8 27 19 27 24 0 6 7 10 16 10 8 0 12 5 9 10 -3 6 0
10 8 10 20 0 130 106 123 119 -4 6 -4 11 1 11 4 0 8 16 8 35 0 19 -3 35 -7 35
-5 0 -8 6 -8 14 0 8 -5 16 -11 18 -5 2 -11 10 -13 18 -1 8 -8 26 -16 40 -8 14
-13 28 -12 32 1 3 -5 12 -13 18 -8 7 -15 18 -15 24 0 7 -20 51 -45 99 -25 48
-43 87 -39 87 4 0 0 8 -8 18 -9 9 -23 33 -31 53 -41 99 -106 160 -187 174 -19
3 -39 10 -44 15 -5 5 -15 6 -22 3 -8 -3 -22 -2 -31 2 -10 5 -27 10 -39 12 -11
2 -45 10 -75 18 -30 9 -63 17 -74 19 -11 1 -29 6 -40 9 -11 4 -37 9 -58 11
-21 3 -44 9 -51 15 -7 6 -15 9 -17 6 -3 -2 -38 5 -79 16 -80 22 -110 29 -150
34 -14 2 -25 4 -25 5 0 1 -7 3 -15 5 -8 1 -33 8 -55 13 -70 19 -119 20 -165 4z"/>
<path d="M520 2736 c-43 -55 -66 -65 -155 -64 -38 1 -71 -2 -72 -6 -7 -17 -2
-28 11 -23 8 3 16 3 18 -1 2 -4 22 -22 44 -40 l42 -32 -2 -89 -2 -89 51 50
c27 28 60 57 72 65 25 17 93 34 93 24 0 -3 18 -6 40 -7 33 -1 38 1 29 12 -6 8
-15 14 -20 14 -11 0 -79 45 -102 67 -15 15 -17 29 -12 90 3 40 4 73 3 73 -2 0
-19 -20 -38 -44z"/>
<path d="M4260 2124 c0 -6 -16 -28 -35 -50 -19 -21 -35 -44 -35 -50 0 -13 -76
-28 -91 -18 -17 10 -110 14 -104 3 4 -5 11 -9 16 -9 6 0 17 -7 25 -15 9 -8 12
-15 8 -15 -4 0 5 -10 20 -21 26 -21 27 -24 23 -108 -2 -48 -7 -93 -11 -100
-16 -25 6 -25 26 -1 69 87 88 101 126 96 20 -3 64 -8 97 -12 l60 -6 -25 28
c-14 16 -31 33 -37 37 -7 4 -13 15 -13 22 0 8 -4 15 -8 15 -29 0 -51 135 -28
172 8 13 7 21 -2 30 -7 7 -12 8 -12 2z"/>
<path d="M309 1478 c-1 -2 -2 -19 -4 -38 -2 -19 -4 -35 -5 -35 -1 0 -3 -18 -6
-40 -5 -41 -41 -85 -70 -85 -8 0 -14 -4 -14 -10 0 -5 -8 -10 -17 -10 -10 0
-31 -9 -48 -20 -16 -11 -39 -20 -50 -20 -31 0 -4 -19 35 -24 45 -5 138 -47
171 -78 24 -21 46 -63 41 -80 -1 -5 3 -8 9 -8 5 0 8 -4 4 -9 -3 -5 -1 -12 5
-16 6 -4 8 -10 5 -15 -3 -5 -1 -11 5 -15 10 -6 12 4 16 85 1 19 2 45 3 57 2
39 46 79 108 98 56 17 88 34 68 36 -42 3 -76 13 -114 32 -43 22 -74 66 -113
165 -11 26 -24 41 -29 30z"/>
<path d="M3145 1339 c-22 -22 -61 -56 -87 -75 -39 -29 -51 -33 -68 -24 -11 6
-20 9 -20 6 0 -3 -21 1 -47 9 -27 8 -68 18 -93 21 -25 3 -51 11 -57 16 -22 17
-15 -10 7 -32 11 -11 20 -23 20 -26 0 -3 10 -20 23 -37 60 -85 90 -190 64
-224 -5 -7 -7 -13 -4 -13 3 0 0 -15 -8 -34 -22 -53 -26 -86 -9 -79 8 3 14 8
14 12 0 3 26 33 58 66 61 63 112 88 148 75 12 -5 25 -6 28 -3 3 3 11 1 18 -5
7 -5 37 -19 66 -30 52 -20 52 -20 52 0 0 10 -4 16 -10 13 -5 -3 -10 -2 -10 3
0 4 -8 17 -18 28 -35 37 -69 109 -67 139 1 17 4 31 5 33 1 1 3 10 4 20 1 9 5
23 9 30 5 6 6 12 3 12 -3 0 1 21 8 48 31 108 30 110 -29 51z"/>
</g>
</svg>
